<svg width="38" height="38" viewBox="0 0 38 38" fill="none" xmlns="http://www.w3.org/2000/svg">
<g clip-path="url(#clip0_5288_17073)">
<path d="M4.75 32.0625C4.75 30.095 6.34498 28.5 8.31249 28.5H20.1875C22.155 28.5 23.75 30.095 23.75 32.0625C23.75 32.7183 23.2183 33.25 22.5625 33.25H5.9375C5.28166 33.25 4.75 32.7183 4.75 32.0625Z" fill="#155728"/>
<path d="M7.91797 28.896C7.91797 26.9285 9.51295 25.3335 11.4805 25.3335H17.0221C18.9896 25.3335 20.5846 26.9285 20.5846 28.896C20.5846 29.5518 20.0529 30.0835 19.3971 30.0835H9.10547C8.44963 30.0835 7.91797 29.5518 7.91797 28.896Z" fill="#B4E7C3"/>
<path d="M23.9531 15.4722L32.4821 25.8829C33.3133 26.8975 33.1646 28.3939 32.15 29.2252C31.1353 30.0564 29.6389 29.9078 28.8077 28.8931L20.2788 18.4824L23.9531 15.4722Z" fill="#155728"/>
<rect x="8.24219" y="15.0371" width="3.16666" height="9.49998" rx="1.58333" transform="rotate(-39.3259 8.24219 15.0371)" fill="#155728"/>
<path d="M13.7081 14.2139C13.2709 13.6803 13.2251 12.9207 13.6244 12.3583C15.2206 10.1105 16.6758 8.91064 19.2509 7.75249C19.8823 7.46853 20.6214 7.66201 21.0601 8.19751L23.5403 11.2249C23.9612 11.7387 24.0235 12.4663 23.6497 13.0154C22.1404 15.2326 20.4935 16.3816 17.9945 17.5875C17.3491 17.899 16.5765 17.7153 16.1224 17.1609L13.7081 14.2139Z" fill="#B4E7C3"/>
<rect x="20.4883" y="5.00293" width="3.16666" height="9.49998" rx="1.58333" transform="rotate(-39.3259 20.4883 5.00293)" fill="#155728"/>
</g>
<defs>
<clipPath id="clip0_5288_17073">
<rect width="37.9999" height="37.9999" fill="white"/>
</clipPath>
</defs>
</svg>
