<svg width="38" height="38" viewBox="0 0 38 38" fill="none" xmlns="http://www.w3.org/2000/svg">
<g clip-path="url(#clip0_5525_22322)">
<path d="M4.75 32.0625C4.75 30.095 6.34499 28.5 8.3125 28.5H20.1875C22.155 28.5 23.75 30.095 23.75 32.0625C23.75 32.7183 23.2183 33.25 22.5625 33.25H5.9375C5.28166 33.25 4.75 32.7183 4.75 32.0625Z" fill="#043B56"/>
<path d="M7.91797 28.8959C7.91797 26.9284 9.51295 25.3334 11.4805 25.3334H17.0221C18.9896 25.3334 20.5846 26.9284 20.5846 28.8959C20.5846 29.5517 20.053 30.0834 19.3971 30.0834H9.10547C8.44963 30.0834 7.91797 29.5517 7.91797 28.8959Z" fill="#B3E4FB"/>
<path d="M23.9531 15.4728L32.4821 25.8835C33.3133 26.8982 33.1647 28.3946 32.15 29.2258C31.1354 30.0571 29.639 29.9084 28.8077 28.8937L20.2787 18.483L23.9531 15.4728Z" fill="#043B56"/>
<rect x="8.24219" y="15.0371" width="3.16667" height="9.5" rx="1.58333" transform="rotate(-39.3259 8.24219 15.0371)" fill="#043B56"/>
<path d="M13.7081 14.214C13.2709 13.6805 13.2251 12.9208 13.6244 12.3584C15.2206 10.1106 16.6758 8.91075 19.2509 7.7526C19.8823 7.46865 20.6214 7.66212 21.0601 8.19762L23.5403 11.225C23.9613 11.7388 24.0235 12.4665 23.6497 13.0155C22.1404 15.2327 20.4935 16.3818 17.9946 17.5877C17.3492 17.8991 16.5766 17.7154 16.1224 17.161L13.7081 14.214Z" fill="#B3E4FB"/>
<rect x="20.4883" y="5.00305" width="3.16667" height="9.5" rx="1.58333" transform="rotate(-39.3259 20.4883 5.00305)" fill="#043B56"/>
</g>
<defs>
<clipPath id="clip0_5525_22322">
<rect width="38" height="38" fill="white"/>
</clipPath>
</defs>
</svg>
