<svg width="38" height="38" viewBox="0 0 38 38" fill="none" xmlns="http://www.w3.org/2000/svg">
<path d="M29.6878 17.0211C29.6878 15.6176 29.4113 14.2278 28.8742 12.9311C28.3371 11.6344 27.5499 10.4562 26.5574 9.46377C25.565 8.47133 24.3868 7.68409 23.0901 7.14698C21.7934 6.60988 20.4037 6.33343 19.0001 6.33344C17.5966 6.33344 16.2068 6.60988 14.9102 7.14698C13.6135 7.68409 12.4353 8.47133 11.4428 9.46377C10.4504 10.4562 9.66315 11.6344 9.12605 12.9311C8.58894 14.2278 8.3125 15.6176 8.3125 17.0211L19.0001 17.0211H29.6878Z" stroke="#043B56" stroke-width="3.56255"/>
<path fill-rule="evenodd" clip-rule="evenodd" d="M9.09501 17.0211C6.84687 17.0211 5.16075 19.0778 5.60164 21.2823L7.73917 31.9699C8.07221 33.6351 9.53434 34.8338 11.2325 34.8338H26.7666C28.4648 34.8338 29.927 33.6351 30.26 31.9699L32.3975 21.2823C32.8384 19.0778 31.1523 17.0211 28.9042 17.0211H9.09501ZM11.8745 23.2555C10.8907 23.2555 10.0932 24.053 10.0932 25.0368V30.3806C10.0932 31.3644 10.8907 32.1619 11.8745 32.1619C12.8583 32.1619 13.6558 31.3644 13.6558 30.3806V25.0368C13.6558 24.053 12.8583 23.2555 11.8745 23.2555ZM17.2184 25.0368C17.2184 24.053 18.0159 23.2555 18.9997 23.2555C19.9835 23.2555 20.781 24.053 20.781 25.0368V30.3806C20.781 31.3644 19.9835 32.1619 18.9997 32.1619C18.0159 32.1619 17.2184 31.3644 17.2184 30.3806V25.0368ZM26.1248 23.2555C25.141 23.2555 24.3435 24.053 24.3435 25.0368V30.3806C24.3435 31.3644 25.141 32.1619 26.1248 32.1619C27.1086 32.1619 27.9061 31.3644 27.9061 30.3806V25.0368C27.9061 24.053 27.1086 23.2555 26.1248 23.2555Z" fill="#043B56"/>
<rect x="1.1875" y="15.2398" width="35.6255" height="5.34382" rx="2.67191" fill="#B3E4FB"/>
</svg>
