<svg width="38" height="38" viewBox="0 0 38 38" fill="none" xmlns="http://www.w3.org/2000/svg">
<circle cx="8.70703" cy="23.75" r="2.375" fill="white"/>
<path d="M4.75 10.1542C4.75 8.16969 6.55441 6.67421 8.50442 7.04254L18.0044 8.83699C19.5002 9.11953 20.5833 10.4264 20.5833 11.9486V33.25H4.75V10.1542Z" fill="#043B56"/>
<path d="M22.6445 18.0768C22.6445 16.0903 24.4523 14.5943 26.4037 14.966L31.1537 15.8708C32.6473 16.1553 33.7279 17.4611 33.7279 18.9815V33.25H22.6445V18.0768Z" fill="#B3E4FB"/>
<path d="M16.625 14.25L10.819 14.25L8.70833 14.25" stroke="white" stroke-width="2.375" stroke-linecap="round" stroke-linejoin="round"/>
<path d="M30.082 20.5834L26.1237 20.5834" stroke="white" stroke-width="2.375" stroke-linecap="round" stroke-linejoin="round"/>
<path d="M30.082 26.9166L26.1237 26.9166" stroke="white" stroke-width="2.375" stroke-linecap="round" stroke-linejoin="round"/>
<path d="M16.625 20.5834L10.819 20.5834L8.70833 20.5834" stroke="white" stroke-width="2.375" stroke-linecap="round" stroke-linejoin="round"/>
<path d="M16.625 26.9166L10.819 26.9166L8.70833 26.9166" stroke="white" stroke-width="2.375" stroke-linecap="round" stroke-linejoin="round"/>
</svg>
