<svg width="44" height="44" viewBox="0 0 44 44" fill="none" xmlns="http://www.w3.org/2000/svg">
<path d="M21.9999 10.5672C15.2904 7.70918 11.4484 7.51978 5.74082 9.86155C4.74765 10.269 4.125 11.2549 4.125 12.3284V29.199C4.125 31.1897 6.17437 32.5003 8.07711 31.9151C12.8655 30.4423 16.473 30.9573 21.9999 33.4331C28.1159 36.2493 31.9126 36.5232 38.188 34.1168C39.2172 33.7221 39.8748 32.7168 39.8748 31.6146V14.8115C39.8748 12.818 37.8204 11.508 35.915 12.0944C31.1902 13.5485 27.5748 13.0486 21.9999 10.5672Z" fill="#155728" stroke="#155728" stroke-width="2.74999"/>
<circle cx="22" cy="22" r="5.49998" fill="#B4E7C3"/>
<path d="M9.625 13.7518C11.5903 12.8577 12.7753 12.7235 15.125 13.7518" stroke="#B4E7C3" stroke-width="2.74999" stroke-linecap="round"/>
<path d="M28.875 29.5285C30.8403 30.4226 32.0253 30.5568 34.375 29.5285" stroke="#B4E7C3" stroke-width="2.74999" stroke-linecap="round"/>
</svg>
