<svg width="38" height="38" viewBox="0 0 38 38" fill="none" xmlns="http://www.w3.org/2000/svg">
<circle cx="19" cy="19" r="9.5" fill="#155728"/>
<mask id="path-2-outside-1_5316_20975" maskUnits="userSpaceOnUse" x="-4.24264" y="-3.93405" width="28.2843" height="28.2843" fill="black">
<rect fill="white" x="-4.24264" y="-3.93405" width="28.2843" height="28.2843"/>
<path fill-rule="evenodd" clip-rule="evenodd" d="M5.63147 4.52387C5.22675 4.52424 4.82215 4.67882 4.51336 4.98761C4.20458 5.2964 4.04999 5.701 4.04962 6.10572L4.0481 6.10724L4.04825 12.8934C4.04827 13.7679 4.75717 14.4767 5.63162 14.4767C6.50607 14.4767 7.21494 13.7678 7.21492 12.8934L7.21485 9.92827L12.657 15.3704C13.2753 15.9887 14.2778 15.9887 14.8961 15.3704C15.5145 14.7521 15.5145 13.7496 14.8961 13.1312L9.45555 7.69063L12.4177 7.6907C13.2922 7.69072 14.0011 6.98185 14.0011 6.1074C14.0011 5.23295 13.2923 4.52405 12.4178 4.52403L5.63458 4.52387C5.63355 4.52386 5.63251 4.52387 5.63147 4.52387Z"/>
</mask>
<path fill-rule="evenodd" clip-rule="evenodd" d="M5.63147 4.52387C5.22675 4.52424 4.82215 4.67882 4.51336 4.98761C4.20458 5.2964 4.04999 5.701 4.04962 6.10572L4.0481 6.10724L4.04825 12.8934C4.04827 13.7679 4.75717 14.4767 5.63162 14.4767C6.50607 14.4767 7.21494 13.7678 7.21492 12.8934L7.21485 9.92827L12.657 15.3704C13.2753 15.9887 14.2778 15.9887 14.8961 15.3704C15.5145 14.7521 15.5145 13.7496 14.8961 13.1312L9.45555 7.69063L12.4177 7.6907C13.2922 7.69072 14.0011 6.98185 14.0011 6.1074C14.0011 5.23295 13.2923 4.52405 12.4178 4.52403L5.63458 4.52387C5.63355 4.52386 5.63251 4.52387 5.63147 4.52387Z" fill="#B4E7C3"/>
<path d="M5.63147 4.52387L5.6293 2.14887L5.62926 2.14887L5.63147 4.52387ZM4.04962 6.10572L5.729 7.78509L6.4237 7.09039L6.42462 6.10793L4.04962 6.10572ZM4.0481 6.10724L2.36872 4.42786L1.67307 5.1235L1.6731 6.10729L4.0481 6.10724ZM4.04825 12.8934L6.42325 12.8934L6.42325 12.8934L4.04825 12.8934ZM5.63162 14.4767L5.63168 16.8517L5.63168 16.8517L5.63162 14.4767ZM7.21492 12.8934L4.83992 12.8934L4.83992 12.8934L7.21492 12.8934ZM7.21485 9.92827L8.89423 8.24889L4.83972 4.19438L4.83985 9.92833L7.21485 9.92827ZM12.657 15.3704L10.9776 17.0498L12.657 15.3704ZM14.8961 13.1312L13.2168 14.8106L14.8961 13.1312ZM9.45555 7.69063L9.45561 5.31563L3.72165 5.31549L7.77617 9.37L9.45555 7.69063ZM12.4177 7.6907L12.4177 10.0657L12.4177 7.6907ZM14.0011 6.1074L11.6261 6.10734V6.10735L14.0011 6.1074ZM12.4178 4.52403L12.4178 6.89903L12.4178 4.52403ZM5.63458 4.52387L5.63213 6.89887H5.63453L5.63458 4.52387ZM6.19274 6.66699C6.03882 6.82091 5.83238 6.89868 5.63368 6.89887L5.62926 2.14887C4.62112 2.1498 3.60548 2.53674 2.83398 3.30823L6.19274 6.66699ZM6.42462 6.10793C6.42443 6.30663 6.34666 6.51307 6.19274 6.66699L2.83398 3.30823C2.06249 4.07973 1.67556 5.09537 1.67462 6.10351L6.42462 6.10793ZM5.72748 7.78661L5.729 7.78509L2.37024 4.42634L2.36872 4.42786L5.72748 7.78661ZM6.42325 12.8934L6.4231 6.10718L1.6731 6.10729L1.67325 12.8935L6.42325 12.8934ZM5.63157 12.1017C6.06879 12.1017 6.42324 12.4561 6.42325 12.8934L1.67325 12.8935C1.6733 15.0796 3.44555 16.8518 5.63168 16.8517L5.63157 12.1017ZM4.83992 12.8934C4.83991 12.4562 5.19434 12.1017 5.63157 12.1017L5.63168 16.8517C7.81781 16.8517 9.58997 15.0794 9.58992 12.8933L4.83992 12.8934ZM4.83985 9.92833L4.83992 12.8934L9.58992 12.8933L9.58985 9.92822L4.83985 9.92833ZM14.3364 13.691L8.89423 8.24889L5.53547 11.6077L10.9776 17.0498L14.3364 13.691ZM13.2168 13.691C13.5259 13.3819 14.0272 13.3819 14.3364 13.691L10.9776 17.0498C12.5234 18.5956 15.0297 18.5956 16.5755 17.0498L13.2168 13.691ZM13.2168 14.8106C12.9076 14.5014 12.9076 14.0002 13.2168 13.691L16.5755 17.0498C18.1213 15.5039 18.1213 12.9977 16.5755 11.4518L13.2168 14.8106ZM7.77617 9.37L13.2168 14.8106L16.5755 11.4518L11.1349 6.01125L7.77617 9.37ZM12.4178 5.3157L9.45561 5.31563L9.45549 10.0656L12.4177 10.0657L12.4178 5.3157ZM11.6261 6.10735C11.6261 5.67012 11.9806 5.31569 12.4178 5.3157L12.4177 10.0657C14.6038 10.0658 16.3761 8.29359 16.3761 6.10746L11.6261 6.10735ZM12.4178 6.89903C11.9805 6.89902 11.6261 6.54457 11.6261 6.10734L16.3761 6.10746C16.3762 3.92134 14.604 2.14908 12.4179 2.14903L12.4178 6.89903ZM5.63453 6.89887L12.4178 6.89903L12.4179 2.14903L5.63464 2.14887L5.63453 6.89887ZM5.63364 6.89887C5.63344 6.89887 5.63291 6.89887 5.63213 6.89886L5.63704 2.14887C5.63419 2.14886 5.63158 2.14887 5.6293 2.14887L5.63364 6.89887Z" fill="white" mask="url(#path-2-outside-1_5316_20975)"/>
<mask id="path-4-outside-2_5316_20975" maskUnits="userSpaceOnUse" x="13.9545" y="13.4252" width="28.2843" height="28.2843" fill="black">
<rect fill="white" x="13.9545" y="13.4252" width="28.2843" height="28.2843"/>
<path fill-rule="evenodd" clip-rule="evenodd" d="M32.3646 33.2515C32.7693 33.2511 33.1739 33.0966 33.4827 32.7878C33.7915 32.479 33.9461 32.0744 33.9465 31.6697L33.948 31.6682L33.9478 24.882C33.9478 24.0075 33.2389 23.2986 32.3645 23.2987C31.49 23.2987 30.7812 24.0076 30.7812 24.882L30.7812 27.8471L25.3391 22.405C24.7208 21.7867 23.7183 21.7867 23.0999 22.405C22.4816 23.0233 22.4816 24.0258 23.0999 24.6442L28.5405 30.0848L25.5784 30.0847C24.7039 30.0847 23.995 30.7935 23.995 31.668C23.995 32.5424 24.7038 33.2513 25.5783 33.2514L32.3618 33.2515C32.3627 33.2515 32.3636 33.2515 32.3644 33.2515C32.3645 33.2515 32.3646 33.2515 32.3646 33.2515Z"/>
</mask>
<path fill-rule="evenodd" clip-rule="evenodd" d="M32.3646 33.2515C32.7693 33.2511 33.1739 33.0966 33.4827 32.7878C33.7915 32.479 33.9461 32.0744 33.9465 31.6697L33.948 31.6682L33.9478 24.882C33.9478 24.0075 33.2389 23.2986 32.3645 23.2987C31.49 23.2987 30.7812 24.0076 30.7812 24.882L30.7812 27.8471L25.3391 22.405C24.7208 21.7867 23.7183 21.7867 23.0999 22.405C22.4816 23.0233 22.4816 24.0258 23.0999 24.6442L28.5405 30.0848L25.5784 30.0847C24.7039 30.0847 23.995 30.7935 23.995 31.668C23.995 32.5424 24.7038 33.2513 25.5783 33.2514L32.3618 33.2515C32.3627 33.2515 32.3636 33.2515 32.3644 33.2515C32.3645 33.2515 32.3646 33.2515 32.3646 33.2515Z" fill="#B4E7C3"/>
<path d="M32.3646 33.2515L32.3638 35.6265L32.3668 35.6265L32.3646 33.2515ZM33.9465 31.6697L32.2671 29.9903L31.5724 30.685L31.5715 31.6675L33.9465 31.6697ZM33.948 31.6682L35.6274 33.3475L36.323 32.6519L36.323 31.6681L33.948 31.6682ZM33.9478 24.882L31.5728 24.882L31.5728 24.882L33.9478 24.882ZM32.3645 23.2987L32.3645 25.6737L32.3645 25.6737L32.3645 23.2987ZM30.7812 24.882L33.1562 24.882L33.1562 24.882L30.7812 24.882ZM30.7812 27.8471L29.1019 29.5265L33.1564 33.581L33.1562 27.8471L30.7812 27.8471ZM25.3391 22.405L27.0185 20.7256L25.3391 22.405ZM23.0999 24.6442L24.7793 22.9648L23.0999 24.6442ZM28.5405 30.0848L28.5405 32.4598L34.2744 32.4599L30.2199 28.4054L28.5405 30.0848ZM25.5784 30.0847L25.5783 32.4597L25.5784 30.0847ZM23.995 31.668L26.37 31.668L26.37 31.668L23.995 31.668ZM25.5783 33.2514L25.5783 30.8764L25.5783 33.2514ZM32.3618 33.2515L32.364 30.8765L32.3618 30.8765L32.3618 33.2515ZM32.3644 33.2515L32.3653 30.8765L32.3629 30.8765L32.3644 33.2515ZM31.8034 31.1084C31.9573 30.9545 32.1637 30.8767 32.3624 30.8765L32.3668 35.6265C33.375 35.6256 34.3906 35.2387 35.1621 34.4672L31.8034 31.1084ZM31.5715 31.6675C31.5717 31.4688 31.6494 31.2623 31.8034 31.1084L35.1621 34.4672C35.9336 33.6957 36.3205 32.68 36.3215 31.6719L31.5715 31.6675ZM32.2686 29.9888L32.2671 29.9903L35.6259 33.3491L35.6274 33.3475L32.2686 29.9888ZM31.5728 24.882L31.573 31.6682L36.323 31.6681L36.3228 24.8819L31.5728 24.882ZM32.3645 25.6737C31.9273 25.6737 31.5729 25.3192 31.5728 24.882L36.3228 24.8819C36.3228 22.6958 34.5505 20.9236 32.3644 20.9237L32.3645 25.6737ZM33.1562 24.882C33.1562 25.3192 32.8017 25.6737 32.3645 25.6737L32.3644 20.9237C30.1783 20.9237 28.4061 22.696 28.4062 24.8821L33.1562 24.882ZM33.1562 27.8471L33.1562 24.882L28.4062 24.8821L28.4062 27.8472L33.1562 27.8471ZM23.6597 24.0844L29.1019 29.5265L32.4606 26.1677L27.0185 20.7256L23.6597 24.0844ZM24.7793 24.0844C24.4702 24.3935 23.9689 24.3935 23.6597 24.0844L27.0185 20.7256C25.4727 19.1798 22.9664 19.1798 21.4206 20.7256L24.7793 24.0844ZM24.7793 22.9648C25.0885 23.274 25.0885 23.7752 24.7793 24.0844L21.4206 20.7256C19.8747 22.2714 19.8747 24.7777 21.4206 26.3235L24.7793 22.9648ZM30.2199 28.4054L24.7793 22.9648L21.4206 26.3235L26.8612 31.7641L30.2199 28.4054ZM25.5783 32.4597L28.5405 32.4598L28.5406 27.7098L25.5784 27.7097L25.5783 32.4597ZM26.37 31.668C26.37 32.1053 26.0155 32.4597 25.5783 32.4597L25.5784 27.7097C23.3923 27.7096 21.62 29.4818 21.62 31.6679L26.37 31.668ZM25.5783 30.8764C26.0156 30.8764 26.37 31.2308 26.37 31.668L21.62 31.6679C21.6199 33.8541 23.3921 35.6263 25.5782 35.6264L25.5783 30.8764ZM32.3618 30.8765L25.5783 30.8764L25.5782 35.6264L32.3617 35.6265L32.3618 30.8765ZM32.3629 30.8765C32.3626 30.8765 32.3631 30.8765 32.364 30.8765L32.3596 35.6265C32.3622 35.6265 32.3645 35.6265 32.366 35.6265L32.3629 30.8765ZM32.3654 30.8765L32.3653 30.8765L32.3636 35.6265L32.3638 35.6265L32.3654 30.8765Z" fill="white" mask="url(#path-4-outside-2_5316_20975)"/>
<mask id="path-6-outside-3_5316_20975" maskUnits="userSpaceOnUse" x="-4.24264" y="13.4252" width="28.2843" height="28.2843" fill="black">
<rect fill="white" x="-4.24264" y="13.4252" width="28.2843" height="28.2843"/>
<path fill-rule="evenodd" clip-rule="evenodd" d="M5.63147 33.2515C5.22675 33.2511 4.82215 33.0966 4.51336 32.7878C4.20458 32.479 4.04999 32.0744 4.04962 31.6697L4.0481 31.6682L4.04825 24.882C4.04827 24.0075 4.75717 23.2986 5.63162 23.2987C6.50608 23.2987 7.21494 24.0076 7.21492 24.882L7.21485 27.8471L12.657 22.405C13.2753 21.7867 14.2778 21.7867 14.8961 22.405C15.5145 23.0233 15.5145 24.0258 14.8961 24.6442L9.45555 30.0848L12.4177 30.0847C13.2922 30.0847 14.0011 30.7935 14.0011 31.668C14.0011 32.5424 13.2923 33.2513 12.4178 33.2514L5.6341 33.2515C5.63336 33.2515 5.63262 33.2515 5.63188 33.2515C5.63174 33.2515 5.6316 33.2515 5.63147 33.2515Z"/>
</mask>
<path fill-rule="evenodd" clip-rule="evenodd" d="M5.63147 33.2515C5.22675 33.2511 4.82215 33.0966 4.51336 32.7878C4.20458 32.479 4.04999 32.0744 4.04962 31.6697L4.0481 31.6682L4.04825 24.882C4.04827 24.0075 4.75717 23.2986 5.63162 23.2987C6.50608 23.2987 7.21494 24.0076 7.21492 24.882L7.21485 27.8471L12.657 22.405C13.2753 21.7867 14.2778 21.7867 14.8961 22.405C15.5145 23.0233 15.5145 24.0258 14.8961 24.6442L9.45555 30.0848L12.4177 30.0847C13.2922 30.0847 14.0011 30.7935 14.0011 31.668C14.0011 32.5424 13.2923 33.2513 12.4178 33.2514L5.6341 33.2515C5.63336 33.2515 5.63262 33.2515 5.63188 33.2515C5.63174 33.2515 5.6316 33.2515 5.63147 33.2515Z" fill="#B4E7C3"/>
<path d="M5.63147 33.2515L5.63036 35.6265L5.62926 35.6265L5.63147 33.2515ZM4.04962 31.6697L5.729 29.9903L6.4237 30.685L6.42462 31.6675L4.04962 31.6697ZM4.0481 31.6682L2.36872 33.3475L1.67307 32.6519L1.6731 31.6681L4.0481 31.6682ZM4.04825 24.882L6.42325 24.882L6.42325 24.882L4.04825 24.882ZM5.63162 23.2987L5.63157 25.6737L5.63157 25.6737L5.63162 23.2987ZM7.21492 24.882L4.83992 24.882L4.83992 24.882L7.21492 24.882ZM7.21485 27.8471L8.89423 29.5265L4.83972 33.581L4.83985 27.8471L7.21485 27.8471ZM12.657 22.405L10.9776 20.7256L10.9776 20.7256L12.657 22.405ZM14.8961 24.6442L13.2168 22.9648L13.2168 22.9648L14.8961 24.6442ZM9.45555 30.0848L9.45561 32.4598L3.72165 32.4599L7.77617 28.4054L9.45555 30.0848ZM12.4177 30.0847L12.4178 32.4597L12.4178 32.4597L12.4177 30.0847ZM14.0011 31.668L11.6261 31.668L11.6261 31.668L14.0011 31.668ZM12.4178 33.2514L12.4178 30.8764L12.4178 33.2514ZM5.6341 33.2515L5.63187 30.8765H5.63404L5.6341 33.2515ZM5.63188 33.2515L5.63261 30.8765L5.63349 30.8765L5.63188 33.2515ZM6.19274 31.1084C6.03882 30.9545 5.83238 30.8767 5.63368 30.8765L5.62926 35.6265C4.62112 35.6256 3.60548 35.2387 2.83398 34.4672L6.19274 31.1084ZM6.42462 31.6675C6.42443 31.4688 6.34666 31.2623 6.19274 31.1084L2.83398 34.4672C2.06249 33.6957 1.67556 32.68 1.67462 31.6719L6.42462 31.6675ZM5.72748 29.9888L5.729 29.9903L2.37024 33.3491L2.36872 33.3475L5.72748 29.9888ZM6.42325 24.882L6.4231 31.6682L1.6731 31.6681L1.67325 24.8819L6.42325 24.882ZM5.63157 25.6737C6.06879 25.6737 6.42324 25.3192 6.42325 24.882L1.67325 24.8819C1.6733 22.6958 3.44555 20.9236 5.63168 20.9237L5.63157 25.6737ZM4.83992 24.882C4.83991 25.3192 5.19434 25.6737 5.63157 25.6737L5.63168 20.9237C7.81781 20.9237 9.58997 22.696 9.58992 24.8821L4.83992 24.882ZM4.83985 27.8471L4.83992 24.882L9.58992 24.8821L9.58985 27.8472L4.83985 27.8471ZM14.3364 24.0844L8.89423 29.5265L5.53547 26.1677L10.9776 20.7256L14.3364 24.0844ZM13.2168 24.0844C13.5259 24.3935 14.0272 24.3935 14.3364 24.0844L10.9776 20.7256C12.5234 19.1798 15.0297 19.1798 16.5755 20.7256L13.2168 24.0844ZM13.2168 22.9648C12.9076 23.274 12.9076 23.7752 13.2168 24.0844L16.5755 20.7256C18.1213 22.2714 18.1213 24.7777 16.5755 26.3235L13.2168 22.9648ZM7.77617 28.4054L13.2168 22.9648L16.5755 26.3235L11.1349 31.7641L7.77617 28.4054ZM12.4178 32.4597L9.45561 32.4598L9.45549 27.7098L12.4177 27.7097L12.4178 32.4597ZM11.6261 31.668C11.6261 32.1053 11.9806 32.4597 12.4178 32.4597L12.4177 27.7097C14.6038 27.7096 16.3761 29.4818 16.3761 31.6679L11.6261 31.668ZM12.4178 30.8764C11.9805 30.8764 11.6261 31.2308 11.6261 31.668L16.3761 31.6679C16.3762 33.8541 14.604 35.6263 12.4179 35.6264L12.4178 30.8764ZM5.63404 30.8765L12.4178 30.8764L12.4179 35.6264L5.63416 35.6265L5.63404 30.8765ZM5.63349 30.8765C5.63293 30.8765 5.63239 30.8765 5.63187 30.8765L5.63633 35.6265C5.63433 35.6265 5.6323 35.6265 5.63026 35.6265L5.63349 30.8765ZM5.63258 30.8765L5.63261 30.8765L5.63114 35.6265C5.63103 35.6265 5.63071 35.6265 5.63036 35.6265L5.63258 30.8765Z" fill="white" mask="url(#path-6-outside-3_5316_20975)"/>
<mask id="path-8-outside-4_5316_20975" maskUnits="userSpaceOnUse" x="13.9584" y="-3.93454" width="28.2843" height="28.2843" fill="black">
<rect fill="white" x="13.9584" y="-3.93454" width="28.2843" height="28.2843"/>
<path fill-rule="evenodd" clip-rule="evenodd" d="M32.3685 4.52338C32.7732 4.52375 33.1778 4.67834 33.4866 4.98713C33.7954 5.29591 33.95 5.70051 33.9504 6.10523L33.9519 6.10675L33.9517 12.8929C33.9517 13.7674 33.2428 14.4763 32.3684 14.4762C31.4939 14.4762 30.7851 13.7673 30.7851 12.8929L30.7851 9.92779L25.343 15.3699C24.7247 15.9882 23.7222 15.9882 23.1039 15.3699C22.4855 14.7516 22.4855 13.7491 23.1039 13.1307L28.5445 7.69014L25.5823 7.69021C24.7078 7.69023 23.9989 6.98137 23.9989 6.10692C23.9989 5.23246 24.7077 4.52356 25.5822 4.52354L32.3659 4.52338C32.3666 4.52338 32.3674 4.52338 32.3681 4.52338C32.3683 4.52338 32.3684 4.52338 32.3685 4.52338Z"/>
</mask>
<path fill-rule="evenodd" clip-rule="evenodd" d="M32.3685 4.52338C32.7732 4.52375 33.1778 4.67834 33.4866 4.98713C33.7954 5.29591 33.95 5.70051 33.9504 6.10523L33.9519 6.10675L33.9517 12.8929C33.9517 13.7674 33.2428 14.4763 32.3684 14.4762C31.4939 14.4762 30.7851 13.7673 30.7851 12.8929L30.7851 9.92779L25.343 15.3699C24.7247 15.9882 23.7222 15.9882 23.1039 15.3699C22.4855 14.7516 22.4855 13.7491 23.1039 13.1307L28.5445 7.69014L25.5823 7.69021C24.7078 7.69023 23.9989 6.98137 23.9989 6.10692C23.9989 5.23246 24.7077 4.52356 25.5822 4.52354L32.3659 4.52338C32.3666 4.52338 32.3674 4.52338 32.3681 4.52338C32.3683 4.52338 32.3684 4.52338 32.3685 4.52338Z" fill="#B4E7C3"/>
<path d="M32.3685 4.52338L32.3696 2.14838L32.3707 2.14838L32.3685 4.52338ZM33.9504 6.10523L32.271 7.78461L31.5763 7.0899L31.5754 6.10744L33.9504 6.10523ZM33.9519 6.10675L35.6313 4.42737L36.3269 5.12301L36.3269 6.1068L33.9519 6.10675ZM33.9517 12.8929L31.5767 12.8929L31.5767 12.8929L33.9517 12.8929ZM32.3684 14.4762L32.3683 16.8512L32.3683 16.8512L32.3684 14.4762ZM30.7851 12.8929L33.1601 12.8929L33.1601 12.8929L30.7851 12.8929ZM30.7851 9.92779L29.1058 8.24841L33.1603 4.1939L33.1601 9.92784L30.7851 9.92779ZM25.343 15.3699L27.0224 17.0493L25.343 15.3699ZM23.1039 13.1307L24.7832 14.8101L23.1039 13.1307ZM28.5445 7.69014L28.5444 5.31514L34.2783 5.315L30.2238 9.36952L28.5445 7.69014ZM25.5823 7.69021L25.5823 10.0652L25.5823 7.69021ZM23.9989 6.10692L26.3739 6.10686L26.3739 6.10686L23.9989 6.10692ZM25.5822 4.52354L25.5822 6.89854L25.5822 4.52354ZM32.3659 4.52338L32.3681 6.89838H32.366L32.3659 4.52338ZM32.3681 4.52338L32.3674 6.89838L32.3665 6.89838L32.3681 4.52338ZM31.8073 6.6665C31.9612 6.82042 32.1676 6.89819 32.3663 6.89838L32.3707 2.14838C33.3789 2.14932 34.3945 2.53625 35.166 3.30775L31.8073 6.6665ZM31.5754 6.10744C31.5756 6.30614 31.6533 6.51258 31.8073 6.6665L35.166 3.30775C35.9375 4.07924 36.3244 5.09488 36.3254 6.10302L31.5754 6.10744ZM32.2725 7.78613L32.271 7.78461L35.6298 4.42585L35.6313 4.42737L32.2725 7.78613ZM31.5767 12.8929L31.5769 6.10669L36.3269 6.1068L36.3267 12.893L31.5767 12.8929ZM32.3684 12.1012C31.9312 12.1012 31.5768 12.4557 31.5767 12.8929L36.3267 12.893C36.3267 15.0791 34.5544 16.8513 32.3683 16.8512L32.3684 12.1012ZM33.1601 12.8929C33.1601 12.4557 32.8057 12.1012 32.3684 12.1012L32.3683 16.8512C30.1822 16.8512 28.41 15.0789 28.4101 12.8928L33.1601 12.8929ZM33.1601 9.92784L33.1601 12.8929L28.4101 12.8928L28.4101 9.92773L33.1601 9.92784ZM23.6636 13.6905L29.1058 8.24841L32.4645 11.6072L27.0224 17.0493L23.6636 13.6905ZM24.7832 13.6905C24.4741 13.3814 23.9728 13.3814 23.6636 13.6905L27.0224 17.0493C25.4766 18.5951 22.9703 18.5951 21.4245 17.0493L24.7832 13.6905ZM24.7832 14.8101C25.0924 14.5009 25.0924 13.9997 24.7832 13.6905L21.4245 17.0493C19.8787 15.5035 19.8787 12.9972 21.4245 11.4514L24.7832 14.8101ZM30.2238 9.36952L24.7832 14.8101L21.4245 11.4514L26.8651 6.01076L30.2238 9.36952ZM25.5822 5.31521L28.5444 5.31514L28.5445 10.0651L25.5823 10.0652L25.5822 5.31521ZM26.3739 6.10686C26.3739 5.66963 26.0194 5.3152 25.5822 5.31521L25.5823 10.0652C23.3962 10.0653 21.6239 8.2931 21.6239 6.10697L26.3739 6.10686ZM25.5822 6.89854C26.0195 6.89853 26.3739 6.54408 26.3739 6.10686L21.6239 6.10697C21.6238 3.92085 23.396 2.1486 25.5821 2.14854L25.5822 6.89854ZM32.366 6.89838L25.5822 6.89854L25.5821 2.14854L32.3658 2.14838L32.366 6.89838ZM32.3665 6.89838C32.3671 6.89838 32.3676 6.89838 32.3681 6.89838L32.3637 2.14838C32.3657 2.14838 32.3677 2.14838 32.3697 2.14838L32.3665 6.89838ZM32.3674 6.89838L32.3674 6.89838L32.3689 2.14838C32.369 2.14838 32.3693 2.14838 32.3696 2.14838L32.3674 6.89838Z" fill="white" mask="url(#path-8-outside-4_5316_20975)"/>
</svg>
