<svg width="38" height="38" viewBox="0 0 38 38" fill="none" xmlns="http://www.w3.org/2000/svg">
<g clip-path="url(#clip0_5505_4067)">
<path d="M19.0001 38.0002C29.4936 38.0002 38.0002 29.4936 38.0002 19.0001C38.0002 8.50664 29.4936 0 19.0001 0C8.50664 0 0 8.50664 0 19.0001C0 29.4936 8.50664 38.0002 19.0001 38.0002Z" fill="#043B56"/>
<path fill-rule="evenodd" clip-rule="evenodd" d="M26.1404 12.5116L16.1076 22.2078L13.4574 19.3473C13.2068 19.1286 12.8894 19.0013 12.5571 18.986C12.2249 18.9707 11.8972 19.0684 11.6275 19.2632C11.3666 19.4465 11.1833 19.7203 11.1133 20.0314C11.0433 20.3425 11.0917 20.6684 11.2489 20.9458L14.4039 26.0989C14.7194 26.5616 15.2663 26.8561 15.8552 26.8561C16.4441 26.8561 16.9699 26.5616 17.2854 26.0989C17.7902 25.4469 27.4234 13.9418 27.4234 13.9418C28.6854 12.6798 27.1499 11.523 26.1614 12.5116H26.1404Z" fill="#B3E4FB"/>
</g>
<defs>
<clipPath id="clip0_5505_4067">
<rect width="38.0002" height="38.0002" fill="white"/>
</clipPath>
</defs>
</svg>
