<svg width="38" height="38" viewBox="0 0 38 38" fill="none" xmlns="http://www.w3.org/2000/svg">
<path d="M29.6876 17.0211C29.6876 15.6175 29.4112 14.2278 28.8741 12.9311C28.337 11.6344 27.5497 10.4562 26.5573 9.46381C25.5649 8.47138 24.3867 7.68414 23.09 7.14704C21.7933 6.60994 20.4036 6.3335 19.0001 6.3335C17.5965 6.3335 16.2068 6.60994 14.9101 7.14704C13.6134 7.68414 12.4352 8.47138 11.4428 9.46381C10.4504 10.4562 9.66314 11.6344 9.12604 12.9311C8.58894 14.2278 8.3125 15.6175 8.3125 17.0211L19.0001 17.0211H29.6876Z" stroke="#155728" stroke-width="3.56252"/>
<path fill-rule="evenodd" clip-rule="evenodd" d="M9.09498 17.021C6.84686 17.021 5.16075 19.0777 5.60164 21.2822L7.73915 31.9697C8.07219 33.6349 9.5343 34.8336 11.2325 34.8336H26.7665C28.4647 34.8336 29.9268 33.6349 30.2598 31.9697L32.3973 21.2822C32.8382 19.0777 31.1521 17.021 28.904 17.021H9.09498ZM11.8744 23.2554C10.8907 23.2554 10.0932 24.0529 10.0932 25.0367V30.3804C10.0932 31.3642 10.8907 32.1617 11.8744 32.1617C12.8582 32.1617 13.6557 31.3642 13.6557 30.3804V25.0367C13.6557 24.0529 12.8582 23.2554 11.8744 23.2554ZM17.2183 25.0366C17.2183 24.0529 18.0158 23.2554 18.9995 23.2554C19.9833 23.2554 20.7808 24.0529 20.7808 25.0366V30.3804C20.7808 31.3642 19.9833 32.1617 18.9995 32.1617C18.0158 32.1617 17.2183 31.3642 17.2183 30.3804V25.0366ZM26.1246 23.2554C25.1408 23.2554 24.3433 24.0529 24.3433 25.0366V30.3804C24.3433 31.3642 25.1408 32.1617 26.1246 32.1617C27.1083 32.1617 27.9058 31.3642 27.9058 30.3804V25.0366C27.9058 24.0529 27.1083 23.2554 26.1246 23.2554Z" fill="#155728"/>
<rect x="1.1875" y="15.2397" width="35.6252" height="5.34378" rx="2.67189" fill="#B4E7C3"/>
</svg>
