<svg width="38" height="38" viewBox="0 0 38 38" fill="none" xmlns="http://www.w3.org/2000/svg">
<g clip-path="url(#clip0_5503_3289)">
<path d="M19 38C29.4934 38 38 29.4934 38 19C38 8.50659 29.4934 0 19 0C8.50659 0 0 8.50659 0 19C0 29.4934 8.50659 38 19 38Z" fill="#155728"/>
<path fill-rule="evenodd" clip-rule="evenodd" d="M26.1442 12.5116L16.1115 22.2077L13.4613 19.3473C13.2106 19.1286 12.8933 19.0012 12.561 18.986C12.2288 18.9707 11.9011 19.0684 11.6314 19.2631C11.3705 19.4464 11.1872 19.7203 11.1172 20.0313C11.0472 20.3424 11.0956 20.6684 11.2528 20.9458L14.4078 26.0988C14.7233 26.5616 15.2701 26.856 15.8591 26.856C16.448 26.856 16.9738 26.5616 17.2893 26.0988C17.7941 25.4468 27.4272 13.9418 27.4272 13.9418C28.6892 12.6798 27.1538 11.523 26.1652 12.5116H26.1442Z" fill="#B4E7C3"/>
</g>
<defs>
<clipPath id="clip0_5503_3289">
<rect width="38" height="38" fill="white"/>
</clipPath>
</defs>
</svg>
