<svg width="44" height="44" viewBox="0 0 44 44" fill="none" xmlns="http://www.w3.org/2000/svg">
<rect x="10.6211" y="9.10352" width="21.9999" height="25.7931" fill="#B3E4FB"/>
<path d="M29.683 3.66699H14.3196C7.6463 3.66699 3.66797 7.64534 3.66797 14.3187V29.6638C3.66797 36.3555 7.6463 40.3338 14.3196 40.3338H29.6646C36.338 40.3338 40.3163 36.3555 40.3163 29.6821V14.3187C40.3346 7.64534 36.3563 3.66699 29.683 3.66699ZM13.9896 33.2755C13.9896 34.0271 13.3663 34.6505 12.6146 34.6505C11.863 34.6505 11.2396 34.0271 11.2396 33.2755V29.4804C11.2396 28.7288 11.863 28.1054 12.6146 28.1054C13.3663 28.1054 13.9896 28.7288 13.9896 29.4804V33.2755ZM23.3763 33.2755C23.3763 34.0271 22.753 34.6505 22.0013 34.6505C21.2496 34.6505 20.6263 34.0271 20.6263 33.2755V25.6671C20.6263 24.9154 21.2496 24.2921 22.0013 24.2921C22.753 24.2921 23.3763 24.9154 23.3763 25.6671V33.2755ZM32.763 33.2755C32.763 34.0271 32.1396 34.6505 31.388 34.6505C30.6363 34.6505 30.013 34.0271 30.013 33.2755V21.8721C30.013 21.1204 30.6363 20.4971 31.388 20.4971C32.1396 20.4971 32.763 21.1204 32.763 21.8721V33.2755ZM32.763 16.0787C32.763 16.8304 32.1396 17.4537 31.388 17.4537C30.6363 17.4537 30.013 16.8304 30.013 16.0787V14.3004C25.338 19.1037 19.4896 22.4954 12.9446 24.1271C12.8346 24.1637 12.7246 24.1637 12.6146 24.1637C11.9913 24.1637 11.4413 23.7421 11.2763 23.1187C11.093 22.3854 11.533 21.6337 12.2846 21.4504C18.463 19.9104 23.963 16.6654 28.3263 12.082H26.0346C25.283 12.082 24.6596 11.4587 24.6596 10.707C24.6596 9.95535 25.283 9.33202 26.0346 9.33202H31.4063C31.4796 9.33202 31.5346 9.36868 31.608 9.36868C31.6996 9.38702 31.7913 9.38702 31.883 9.42368C31.9746 9.46035 32.048 9.51535 32.1396 9.57035C32.1946 9.60702 32.2496 9.62535 32.3046 9.66202C32.323 9.68035 32.323 9.69868 32.3413 9.69868C32.4146 9.77202 32.4696 9.84535 32.5246 9.91869C32.5796 9.99202 32.6346 10.047 32.653 10.1204C32.6896 10.1937 32.6896 10.267 32.708 10.3587C32.7263 10.4504 32.763 10.542 32.763 10.652C32.763 10.6704 32.7813 10.6887 32.7813 10.707V16.0787H32.763Z" fill="#043B56"/>
</svg>
