<svg width="38" height="38" viewBox="0 0 38 38" fill="none" xmlns="http://www.w3.org/2000/svg">
<path fill-rule="evenodd" clip-rule="evenodd" d="M8.987 4.23633C7.23808 4.23633 5.82031 5.6541 5.82031 7.40301V29.5698C5.82031 31.3187 7.23809 32.7365 8.987 32.7365H28.0739C29.7886 32.7365 31.1917 31.3718 31.2394 29.6578L31.6584 14.5905C31.6645 14.373 31.5807 14.1625 31.4268 14.0087L26.4038 8.98635L21.7465 4.32908C21.6871 4.26969 21.6065 4.23633 21.5226 4.23633H8.987ZM13.4601 14.1399C14.5531 14.1399 15.4392 13.2538 15.4392 12.1607C15.4392 11.0677 14.5531 10.1816 13.4601 10.1816H11.085C9.99198 10.1816 9.10587 11.0677 9.10587 12.1607C9.10587 13.2538 9.99198 14.1399 11.085 14.1399H13.4601ZM28.106 24.8275C28.106 25.9205 27.2199 26.8067 26.1268 26.8067H11.085C9.99198 26.8067 9.10587 25.9205 9.10587 24.8275C9.10587 23.7344 9.99198 22.8483 11.085 22.8483H26.1268C27.2199 22.8483 28.106 23.7344 28.106 24.8275ZM16.6267 20.4733C17.7198 20.4733 18.6059 19.5872 18.6059 18.4941C18.6059 17.401 17.7198 16.5149 16.6267 16.5149H11.085C9.99198 16.5149 9.10587 17.401 9.10587 18.4941C9.10587 19.5872 9.99198 20.4733 11.085 20.4733H16.6267Z" fill="#155728"/>
<path d="M21.3717 4.51852C21.3717 4.31187 21.6215 4.20841 21.7676 4.35459L22.1636 4.75086L22.9552 5.54253L24.5386 7.12587L26.9136 9.50089L31.1229 13.7098C31.3224 13.9093 31.1812 14.2504 30.8991 14.2504L24.5391 14.2516C22.79 14.2519 21.3719 12.8341 21.3718 11.085L21.3717 4.51852Z" fill="#B4E7C3"/>
</svg>
