<svg width="38" height="38" viewBox="0 0 38 38" fill="none" xmlns="http://www.w3.org/2000/svg">
<path d="M27.7097 9.5L25.0298 9.88285C23.3877 10.1174 22.168 11.5238 22.168 13.1825V13.2223C22.168 13.3794 22.181 13.5362 22.2068 13.6912V13.6912C22.554 15.7743 20.5961 17.4993 18.5734 16.8925L17.2585 16.498C15.9421 16.1031 14.5223 16.6144 13.7599 17.7579V17.7579C13.5612 18.056 13.4152 18.386 13.3283 18.7336L12.668 21.3751" stroke="#B3E4FB" stroke-width="3.95836" stroke-linecap="round" stroke-linejoin="round"/>
<path d="M27.7097 29.2919C24.417 27.7806 22.492 26.3661 22.168 23.7502" stroke="#B3E4FB" stroke-width="3.95836" stroke-linecap="round" stroke-linejoin="round"/>
<path d="M33.2502 19.0001C33.2502 26.8702 26.8702 33.2502 19.0001 33.2502C11.13 33.2502 4.75 26.8702 4.75 19.0001C4.75 11.13 11.13 4.75 19.0001 4.75C26.8702 4.75 33.2502 11.13 33.2502 19.0001Z" stroke="#043B56" stroke-width="3.95836"/>
</svg>
