<svg width="44" height="44" viewBox="0 0 44 44" fill="none" xmlns="http://www.w3.org/2000/svg">
<g clip-path="url(#clip0_4867_27428)">
<circle cx="22.0033" cy="22.0004" r="21.2143" fill="#B3E4FB"/>
<path d="M37.5528 6.44714C28.9575 -2.14836 15.0439 -2.14973 6.44717 6.44714C-2.14841 15.0426 -2.1497 28.9561 6.44717 37.5529C15.0425 46.1484 28.9561 46.1496 37.5528 37.5529C46.1484 28.9574 46.1496 15.0439 37.5528 6.44714ZM36.6335 34.4175C35.6059 33.4985 34.5066 32.6853 33.3479 31.9844C34.1137 29.339 34.5675 26.4278 34.6747 23.4017H41.1413C40.8489 27.4806 39.2817 31.307 36.6335 34.4175ZM2.8586 23.4017H9.32519C9.43244 26.4278 9.88616 29.339 10.652 31.9844C9.49332 32.6853 8.39404 33.4985 7.36638 34.4175C4.71823 31.307 3.15107 27.4806 2.8586 23.4017ZM7.36647 9.5825C8.39413 10.5015 9.4934 11.3147 10.6521 12.0156C9.88625 14.661 9.43252 17.5722 9.32527 20.5983H2.8586C3.15107 16.5195 4.71823 12.6931 7.36647 9.5825ZM20.5984 12.3053C18.3124 12.1418 16.1083 11.5787 14.0649 10.6499C15.2533 7.58969 17.4441 3.91929 20.5984 3.00969V12.3053ZM20.5984 15.1138V20.5984H12.1297C12.2267 18.0386 12.5894 15.5804 13.1927 13.3313C15.5148 14.3464 18.0121 14.9526 20.5984 15.1138ZM20.5984 23.4017V28.8863C18.0121 29.0474 15.5148 29.6537 13.1927 30.6688C12.5894 28.4197 12.2267 25.9615 12.1297 23.4017H20.5984ZM20.5984 31.6948V40.9903C17.4443 40.0807 15.2535 36.4107 14.0649 33.3502C16.1083 32.4213 18.3124 31.8583 20.5984 31.6948ZM23.4016 31.6948C25.6876 31.8583 27.8917 32.4213 29.9351 33.3502C28.7466 36.4105 26.5559 40.0807 23.4016 40.9903V31.6948ZM23.4016 28.8863V23.4017H31.8703C31.7732 25.9615 31.4105 28.4197 30.8073 30.6688C28.4852 29.6537 25.9878 29.0474 23.4016 28.8863ZM23.4016 20.5984V15.1138C25.9878 14.9526 28.4852 14.3464 30.8073 13.3313C31.4105 15.5804 31.7732 18.0386 31.8703 20.5984H23.4016ZM23.4016 12.3053V3.00978C26.5559 3.91937 28.7467 7.58978 29.9351 10.65C27.8917 11.5787 25.6876 12.1418 23.4016 12.3053ZM29.6974 4.40916C31.4916 5.19485 33.1655 6.26021 34.666 7.58205C33.9574 8.20705 33.2037 8.77907 32.4112 9.29347C31.7123 7.56307 30.8195 5.88144 29.6974 4.40916ZM11.5887 9.29347C10.7962 8.77904 10.0425 8.20703 9.33386 7.58205C10.8344 6.26021 12.5083 5.19485 14.3025 4.40916C13.1804 5.88162 12.2876 7.56324 11.5887 9.29347ZM11.5888 34.7066C12.2876 36.4369 13.1805 38.1186 14.3026 39.5909C12.5084 38.8052 10.8345 37.7399 9.33395 36.418C10.0426 35.793 10.7962 35.221 11.5888 34.7066ZM32.4112 34.7066C33.2037 35.221 33.9574 35.793 34.666 36.418C33.1655 37.7398 31.4916 38.8051 29.6974 39.5908C30.8194 38.1187 31.7123 36.437 32.4112 34.7066ZM34.6748 20.5984C34.5675 17.5723 34.1138 14.661 33.348 12.0156C34.5067 11.3148 35.6059 10.5015 36.6336 9.58259C39.2817 12.6931 40.8489 16.5195 41.1414 20.5984H34.6748Z" fill="#043B56"/>
</g>
<defs>
<clipPath id="clip0_4867_27428">
<rect width="44" height="44" fill="white"/>
</clipPath>
</defs>
</svg>
