<svg width="44" height="44" viewBox="0 0 44 44" fill="none" xmlns="http://www.w3.org/2000/svg">
<path d="M31.1692 25.6663V14.6663C31.1692 10.6162 27.886 7.33301 23.8359 7.33301H20.1692C16.1192 7.33301 12.8359 10.6162 12.8359 14.6663V25.6663" stroke="#B4E7C3" stroke-width="4.58331"/>
<path fill-rule="evenodd" clip-rule="evenodd" d="M9.16665 20.166C7.14162 20.166 5.5 21.8076 5.5 23.8327V36.6659C5.5 38.691 7.14162 40.3326 9.16665 40.3326H34.8332C36.8582 40.3326 38.4999 38.691 38.4999 36.6659V23.8327C38.4999 21.8076 36.8582 20.166 34.8332 20.166H9.16665ZM26.5858 28.4162C26.5858 29.9157 25.8657 31.247 24.7524 32.0832V33.9162C24.7524 35.435 23.5212 36.6662 22.0025 36.6662C20.4837 36.6662 19.2525 35.435 19.2525 33.9162V32.0832C18.1392 31.247 17.4191 29.9157 17.4191 28.4162C17.4191 25.8849 19.4712 23.8329 22.0025 23.8329C24.5337 23.8329 26.5858 25.8849 26.5858 28.4162Z" fill="#155728"/>
</svg>
