<svg width="44" height="44" viewBox="0 0 44 44" fill="none" xmlns="http://www.w3.org/2000/svg">
<path d="M31.1653 25.6663V14.6663C31.1653 10.6162 27.8821 7.33301 23.832 7.33301H20.1653C16.1153 7.33301 12.832 10.6162 12.832 14.6663V25.6663" stroke="#B3E4FB" stroke-width="4.58331"/>
<path fill-rule="evenodd" clip-rule="evenodd" d="M9.16665 20.166C7.14162 20.166 5.5 21.8076 5.5 23.8327V36.6659C5.5 38.691 7.14162 40.3326 9.16665 40.3326H34.8332C36.8582 40.3326 38.4999 38.691 38.4999 36.6659V23.8327C38.4999 21.8076 36.8582 20.166 34.8332 20.166H9.16665ZM26.5819 28.4162C26.5819 29.9157 25.8618 31.247 24.7485 32.0832V33.9162C24.7485 35.435 23.5173 36.6662 21.9985 36.6662C20.4798 36.6662 19.2486 35.435 19.2486 33.9162V32.0832C18.1353 31.247 17.4152 29.9157 17.4152 28.4162C17.4152 25.8849 19.4673 23.8329 21.9985 23.8329C24.5298 23.8329 26.5819 25.8849 26.5819 28.4162Z" fill="#043B56"/>
</svg>
