<svg width="38" height="38" viewBox="0 0 38 38" fill="none" xmlns="http://www.w3.org/2000/svg">
<path fill-rule="evenodd" clip-rule="evenodd" d="M11.0807 4.75C9.33183 4.75 7.91406 6.16777 7.91406 7.91667V31.6667C7.91406 33.4156 9.33182 34.8333 11.0807 34.8333H26.9141C28.663 34.8333 30.0807 33.4156 30.0807 31.6667V7.91667C30.0807 6.16777 28.663 4.75 26.9141 4.75H11.0807ZM14.2474 7.91667C12.4985 7.91667 11.0807 9.33443 11.0807 11.0833V25.3333C11.0807 27.0822 12.4985 28.5 14.2474 28.5H23.7474C25.4963 28.5 26.9141 27.0822 26.9141 25.3333V11.0833C26.9141 9.33443 25.4963 7.91667 23.7474 7.91667H14.2474Z" fill="#155728"/>
<rect x="15.832" y="30.0834" width="6.33333" height="3.16667" rx="1.58333" fill="#B4E7C3"/>
</svg>
