<svg width="44" height="44" viewBox="0 0 44 44" fill="none" xmlns="http://www.w3.org/2000/svg">
<path d="M22 10.5672C15.2905 7.70918 11.4484 7.51977 5.74083 9.86156C4.74766 10.2691 4.125 11.2549 4.125 12.3285V29.1991C4.125 31.1898 6.17438 32.5004 8.07714 31.9152C12.8656 30.4425 16.473 30.9575 22 33.4333C28.116 36.2495 31.9128 36.5234 38.1883 34.117C39.2175 33.7223 39.8751 32.717 39.8751 31.6147V14.8115C39.8751 12.818 37.8206 11.508 35.9152 12.0944C31.1904 13.5486 27.5749 13.0486 22 10.5672Z" stroke="#155728" stroke-width="2.75001"/>
<circle cx="22" cy="22" r="4.81251" fill="#155728" stroke="#155728" stroke-width="1.375"/>
<path d="M9.625 13.7508C11.5903 12.8567 12.7753 12.7225 15.125 13.7508" stroke="#B4E7C3" stroke-width="2.75001" stroke-linecap="round"/>
<path d="M28.875 29.5285C30.8403 30.4226 32.0253 30.5568 34.375 29.5285" stroke="#B4E7C3" stroke-width="2.75001" stroke-linecap="round"/>
</svg>
