<svg width="38" height="38" viewBox="0 0 38 38" fill="none" xmlns="http://www.w3.org/2000/svg">
<path d="M12.668 19V7.91663V7.91663C12.668 5.29327 10.5413 3.16663 7.91797 3.16663V3.16663C5.29462 3.16663 3.16797 5.29327 3.16797 7.91663V7.91663C3.16797 10.54 5.29462 12.6666 7.91797 12.6666V12.6666H20.5846" stroke="#043B56" stroke-width="3.95833"/>
<path d="M24.543 19L24.543 29.2916V29.2916C24.543 31.915 26.6696 34.0416 29.293 34.0416V34.0416C31.9163 34.0416 34.043 31.915 34.043 29.2916V29.2916C34.043 26.6683 31.9163 24.5416 29.293 24.5416V24.5416L16.6263 24.5416" stroke="#043B56" stroke-width="3.95833"/>
<path d="M24.543 19V7.91663V7.91663C24.543 5.29327 26.6696 3.16663 29.293 3.16663V3.16663C31.9163 3.16663 34.043 5.29327 34.043 7.91663V7.91663C34.043 10.54 31.9163 12.6666 29.293 12.6666V12.6666H20.5846" stroke="#B3E4FB" stroke-width="3.95833"/>
<path d="M12.668 19L12.668 29.2916V29.2916C12.668 31.915 10.5413 34.0416 7.91797 34.0416V34.0416C5.29462 34.0416 3.16797 31.915 3.16797 29.2916V29.2916C3.16797 26.6683 5.29462 24.5416 7.91797 24.5416V24.5416L16.6263 24.5416" stroke="#B3E4FB" stroke-width="3.95833"/>
</svg>
