<svg width="38" height="38" viewBox="0 0 38 38" fill="none" xmlns="http://www.w3.org/2000/svg">
<circle cx="8.70706" cy="23.7503" r="2.37503" fill="white"/>
<path d="M4.75 7.91677C4.75 6.16784 6.16778 4.75006 7.91671 4.75006H25.3336C27.0825 4.75006 28.5003 6.16784 28.5003 7.91677V30.0837C28.5003 31.8326 27.0825 33.2504 25.3336 33.2504H10.2308L7.49042 30.4004L4.75 27.5504V7.91677Z" fill="#043B56"/>
<circle cx="26.9168" cy="25.3336" r="7.91677" fill="#B3E4FB" stroke="white" stroke-width="2.37503"/>
<path d="M27.3946 22.4839V25.6507L25.0195 27.234" stroke="white" stroke-width="2.37503" stroke-linecap="round" stroke-linejoin="round"/>
<path d="M24.543 10.2918L10.2928 10.2918L8.70943 10.2918" stroke="white" stroke-width="2.37503" stroke-linecap="round" stroke-linejoin="round"/>
<path d="M17.418 15.8336L9.5012 15.8336L8.70952 15.8336" stroke="white" stroke-width="2.37503" stroke-linecap="round" stroke-linejoin="round"/>
<path d="M14.25 21.3752L9.49994 21.3752L8.70826 21.3752" stroke="white" stroke-width="2.37503" stroke-linecap="round" stroke-linejoin="round"/>
<path d="M14.25 26.917L8.70826 26.917" stroke="white" stroke-width="2.37503" stroke-linecap="round" stroke-linejoin="round"/>
</svg>
