<svg width="38" height="38" viewBox="0 0 38 38" fill="none" xmlns="http://www.w3.org/2000/svg">
<path fill-rule="evenodd" clip-rule="evenodd" d="M10.0275 5.66306C9.83433 5.46991 9.62214 5.30741 9.39696 5.17556C10.1556 4.90018 10.9744 4.75 11.8282 4.75H26.0782C30.0133 4.75 33.2033 7.93999 33.2033 11.875V19.9331L33.1834 19.9132C31.966 18.6959 29.9923 18.6959 28.775 19.9132C28.0527 20.6355 27.759 21.624 27.8938 22.5629L20.2917 22.5627C18.5701 22.5627 17.1744 23.9583 17.1744 25.6798C17.1744 27.4014 18.57 28.7971 20.2915 28.7971L27.8938 28.7973C27.7589 29.7362 28.0526 30.7249 28.775 31.4473C29.0969 31.7692 29.4717 32.006 29.8714 32.1576C28.773 32.8497 27.4724 33.2501 26.0782 33.2501H11.8282C7.89312 33.2501 4.70312 30.0602 4.70312 26.1251V16.2812L5.61908 17.1971C6.83642 18.4145 8.81013 18.4145 10.0275 17.1971C10.7498 16.4748 11.0436 15.4861 10.9086 14.5472L18.5109 14.547C20.2325 14.5469 21.6281 13.1513 21.628 11.4297C21.628 9.70811 20.2323 8.31253 18.5108 8.31257L10.9087 8.31274C11.0435 7.37389 10.7498 6.38534 10.0275 5.66306Z" fill="#155728"/>
<path fill-rule="evenodd" clip-rule="evenodd" d="M30.0276 21.1725C29.5059 21.6943 29.5059 22.5401 30.0276 23.0618L31.3098 24.344L20.2848 24.3438C19.547 24.3438 18.9488 24.9419 18.9488 25.6797C18.9488 26.4175 19.5469 27.0156 20.2847 27.0157L31.31 27.0159L30.0276 28.2982C29.5059 28.82 29.5059 29.6658 30.0276 30.1876C30.5494 30.7093 31.3952 30.7093 31.917 30.1876L35.4798 26.6247C36.0015 26.103 36.0015 25.2571 35.4798 24.7354L31.917 21.1725C31.3952 20.6508 30.5494 20.6508 30.0276 21.1725Z" fill="#B4E7C3"/>
<path fill-rule="evenodd" clip-rule="evenodd" d="M8.76142 6.92254C9.28314 7.44426 9.28314 8.29013 8.76142 8.81185L7.47924 10.094L18.5043 10.0938C19.2421 10.0938 19.8402 10.6919 19.8403 11.4297C19.8403 12.1675 19.2422 12.7656 18.5043 12.7657L7.47909 12.7659L8.76142 14.0482C9.28314 14.57 9.28314 15.4158 8.76142 15.9376C8.2397 16.4593 7.39383 16.4593 6.87211 15.9376L3.30926 12.3747C2.78754 11.853 2.78754 11.0071 3.30926 10.4854L6.87211 6.92254C7.39383 6.40082 8.2397 6.40082 8.76142 6.92254Z" fill="#B4E7C3"/>
</svg>
