<svg width="38" height="38" viewBox="0 0 38 38" fill="none" xmlns="http://www.w3.org/2000/svg">
<circle cx="8.71094" cy="23.75" r="2.375" fill="white"/>
<path d="M4.75 7.91667C4.75 6.16777 6.16777 4.75 7.91667 4.75H25.3333C27.0822 4.75 28.5 6.16777 28.5 7.91667V30.0833C28.5 31.8322 27.0822 33.25 25.3333 33.25H10.2308L7.49038 30.4L4.75 27.55V7.91667Z" fill="#155728"/>
<circle cx="26.9167" cy="25.3334" r="7.91667" fill="#B4E7C3" stroke="white" stroke-width="2.375"/>
<path d="M27.3828 22.4836V25.6503L25.0078 27.2336" stroke="white" stroke-width="2.375" stroke-linecap="round" stroke-linejoin="round"/>
<path d="M24.5391 10.2918L10.2891 10.2917L8.70573 10.2918" stroke="white" stroke-width="2.375" stroke-linecap="round" stroke-linejoin="round"/>
<path d="M17.4141 15.8333L9.4974 15.8333L8.70573 15.8333" stroke="white" stroke-width="2.375" stroke-linecap="round" stroke-linejoin="round"/>
<path d="M14.25 21.375L9.5 21.375L8.70833 21.375" stroke="white" stroke-width="2.375" stroke-linecap="round" stroke-linejoin="round"/>
<path d="M14.25 26.9167L8.70833 26.9167" stroke="white" stroke-width="2.375" stroke-linecap="round" stroke-linejoin="round"/>
</svg>
