<svg width="24" height="24" viewBox="0 0 24 24" fill="none" xmlns="http://www.w3.org/2000/svg">
<g clip-path="url(#clip0_241_6723)">
<path d="M27.7551 0L-4.31012 0C-5.87011 0 -7.13464 1.31596 -7.13464 2.9394V8.57143H30.5796V2.9394C30.5796 1.31596 29.3151 0 27.7551 0Z" fill="#CE2029"/>
<path d="M-7.13452 21.0598C-7.13452 22.6831 -5.86999 23.9992 -4.31 23.9992H27.7552C29.3152 23.9992 30.5798 22.6832 30.5798 21.0598V15.4277H-7.13452V21.0598Z" fill="#016C40"/>
<path d="M-7.13452 7.27026H30.5798V16.255H-7.13452V7.27026Z" fill="#FAD115"/>
<path d="M11.9968 8.38137L12.6754 10.6011L14.8203 10.6192C15.0979 10.6216 15.2131 11.0082 14.9898 11.1882L13.2644 12.5782L13.9113 14.8091C13.9951 15.0979 13.6937 15.3369 13.4677 15.1607L11.7226 13.7999L9.97762 15.1605C9.75178 15.3368 9.45029 15.0978 9.53396 14.809L10.1809 12.578L8.4555 11.188C8.23216 11.0081 8.34722 10.6215 8.62499 10.6191L10.7698 10.6009L11.4485 8.38121C11.5364 8.09393 11.9089 8.09393 11.9968 8.38137Z" fill="black"/>
</g>
<defs>
<clipPath id="clip0_241_6723">
<rect width="37.7143" height="24" fill="white" transform="translate(-7.13464)"/>
</clipPath>
</defs>
</svg>
