<svg width="24" height="24" viewBox="0 0 24 24" fill="none" xmlns="http://www.w3.org/2000/svg">
<g clip-path="url(#clip0_241_6759)">
<path d="M-8.43237 21.1506C-8.43237 22.724 -7.07057 23.9996 -5.39058 23.9996H29.1412C30.8211 23.9996 32.183 22.7241 32.183 21.1506V15.6919H-8.43237V21.1506Z" fill="#006600"/>
<path d="M29.4137 -0.000244141L-5.66326 -0.000244141C-7.34325 -0.000244141 -8.4325 2.1983 -8.4325 3.77179V9.23053H32.1829V3.77179C32.1829 2.1983 31.0936 -0.000244141 29.4137 -0.000244141Z" fill="black"/>
<path d="M-8.43237 7.94702H32.183V16.817H-8.43237V7.94702Z" fill="#BC0000"/>
<path d="M-8.43237 7.48047H32.183V8.88106H-8.43237V7.48047ZM-8.43237 15.884H32.183V17.2846H-8.43237V15.884Z" fill="white"/>
<path d="M15.6255 6.48177C16.1893 5.31901 16.7777 2.62549 16.7777 2.62549C16.7777 2.62549 15.0268 4.75513 14.4628 5.91781C14.3446 6.16151 14.3947 6.44179 14.5654 6.63139L8.14258 19.8744L8.57856 20.0859L15.0014 6.84288C15.2562 6.85962 15.5074 6.72547 15.6255 6.48177Z" fill="white"/>
<path d="M8.12561 6.48177C7.56176 5.31901 6.97339 2.62549 6.97339 2.62549C6.97339 2.62549 8.72429 4.75513 9.28823 5.91781C9.40642 6.16151 9.35629 6.44179 9.18558 6.63139L15.6085 19.8744L15.1725 20.0859L8.7496 6.84288C8.49488 6.85962 8.24373 6.72547 8.12561 6.48177Z" fill="white"/>
<path d="M15.3772 12.3832C15.3772 16.2509 12.5205 19.3862 11.8758 19.3862C11.2312 19.3862 8.37451 16.2509 8.37451 12.3832C8.37451 8.51545 11.2312 5.38013 11.8758 5.38013C12.5205 5.38013 15.3772 8.51545 15.3772 12.3832Z" fill="#BC0000"/>
<path d="M14.6769 15.7603C15.0893 14.7582 15.3772 13.6072 15.3772 12.3815C15.3772 11.1557 15.0894 10.0048 14.6769 9.00269C14.2645 10.0047 13.9766 11.1557 13.9766 12.3815C13.9766 13.6072 14.2645 14.7582 14.6769 15.7603ZM9.07481 9.00269C8.66239 10.0047 8.37451 11.1557 8.37451 12.3815C8.37451 13.6071 8.66231 14.7582 9.07481 15.7603C9.48723 14.7582 9.77511 13.6072 9.77511 12.3815C9.77511 11.1557 9.48723 10.0048 9.07481 9.00269Z" fill="black"/>
<path d="M11.8752 13.4326C12.262 13.4326 12.5755 12.9623 12.5755 12.3822C12.5755 11.8021 12.262 11.3318 11.8752 11.3318C11.4885 11.3318 11.1749 11.8021 11.1749 12.3822C11.1749 12.9623 11.4885 13.4326 11.8752 13.4326Z" fill="white"/>
<path d="M11.9805 5.38013V11.3327C12.1714 10.9352 12.5101 9.76071 12.5101 8.35639C12.5101 6.95199 12.1714 5.77758 11.9805 5.38013ZM11.7704 5.38013C11.5795 5.77758 11.2408 6.95199 11.2408 8.35639C11.2408 9.76079 11.5795 10.9353 11.7704 11.3327V5.38013ZM11.9805 13.4336V19.3861C12.1714 18.9887 12.5101 17.8142 12.5101 16.4098C12.5101 15.0054 12.1714 13.831 11.9805 13.4336ZM11.7704 13.4336C11.5795 13.831 11.2408 15.0054 11.2408 16.4098C11.2408 17.8142 11.5795 18.9887 11.7704 19.3861V13.4336Z" fill="white"/>
</g>
<defs>
<clipPath id="clip0_241_6759">
<rect width="40.6154" height="24" fill="white" transform="translate(-8.4325 -0.000244141)"/>
</clipPath>
</defs>
</svg>
