<svg width="24" height="24" viewBox="0 0 24 24" fill="none" xmlns="http://www.w3.org/2000/svg">
<g clip-path="url(#clip0_241_6732)">
<path d="M32.183 0L-8.4325 0V23.9998H32.183V0Z" fill="#F0F0F0"/>
<path d="M14.4137 0L9.33678 0V9.74976H-8.4325V14.2497H9.33678V23.9994H14.4137V14.2497H32.183V9.74976H14.4137V0Z" fill="#D80027"/>
<path d="M22.8064 16.1714L32.1841 20.7891V16.1714H22.8064Z" fill="#0052B4"/>
<path d="M16.2903 16.1716L32.1833 23.9975V21.7846L20.7846 16.1716H16.2903Z" fill="#0052B4"/>
<path d="M27.9501 23.9975L16.2904 18.2556V23.9975H27.9501Z" fill="#0052B4"/>
<path d="M16.2903 16.1736L32.1833 23.9995V21.7865L20.7846 16.1736H16.2903Z" fill="#F0F0F0"/>
<path d="M16.2903 16.1736L32.1833 23.9995V21.7865L20.7846 16.1736H16.2903Z" fill="#D80027"/>
<path d="M7.46038 17.1675V23.9983H-6.41052L7.46038 17.1675Z" fill="#0052B4"/>
<path d="M2.96638 16.1736L-8.43237 21.7865V23.9995L7.46065 16.1736H2.96638Z" fill="#D80027"/>
<path d="M0.945281 7.82503L-8.43237 3.20728V7.82503H0.945281Z" fill="#0052B4"/>
<path d="M7.46053 7.82591L-8.4325 0V2.21297L2.96625 7.82591H7.46053Z" fill="#0052B4"/>
<path d="M-4.19812 0L7.46154 5.74189V0L-4.19812 0Z" fill="#0052B4"/>
<path d="M7.46053 7.82591L-8.4325 0V2.21297L2.96625 7.82591H7.46053Z" fill="#F0F0F0"/>
<path d="M7.46053 7.82591L-8.4325 0V2.21297L2.96625 7.82591H7.46053Z" fill="#D80027"/>
<path d="M16.2903 6.8308V0L30.1612 0L16.2903 6.8308Z" fill="#0052B4"/>
<path d="M20.7846 7.82591L32.1833 2.21297V0L16.2903 7.82591H20.7846Z" fill="#D80027"/>
</g>
<defs>
<clipPath id="clip0_241_6732">
<rect width="40.6154" height="24" fill="white" transform="translate(-8.4325)"/>
</clipPath>
</defs>
</svg>
