<svg width="24" height="24" viewBox="0 0 24 24" fill="none" xmlns="http://www.w3.org/2000/svg">
<g clip-path="url(#clip0_241_6679)">
<rect width="40.6154" height="24" rx="1.84615" fill="white"/>
<rect width="40.6154" height="24" rx="1.84615" fill="white"/>
<path d="M16.6151 0L38.769 0C39.7886 0 40.6151 0.826551 40.6151 1.84615L16.6151 1.84615V0Z" fill="#B33639"/>
<rect x="16.6151" y="3.69238" width="24" height="1.84615" fill="#B33639"/>
<rect x="16.6151" y="7.38452" width="24" height="1.84615" fill="#B33639"/>
<rect x="16.6151" y="11.0767" width="24" height="1.84615" fill="#B33639"/>
<rect x="-0.00012207" y="14.7695" width="40.6154" height="1.84615" fill="#B33639"/>
<rect x="-0.00012207" y="18.4614" width="40.6154" height="1.84615" fill="#B33639"/>
<path d="M-0.00012207 22.1538H40.6153C40.6153 23.1734 39.7887 24 38.7691 24H1.84603C0.82643 24 -0.00012207 23.1734 -0.00012207 22.1538Z" fill="#B33639"/>
<path d="M0 1.84616C0 0.826553 0.826551 0 1.84615 0L16.6154 0V12.9231H0L0 1.84616Z" fill="#001B7A"/>
<path d="M2.03062 0.737793L2.30446 1.36202L2.9537 1.44296L2.4737 1.90969L2.60111 2.58395L2.03062 2.24818L1.46013 2.58395L1.58754 1.90969L1.10754 1.44296L1.75678 1.36202L2.03062 0.737793Z" fill="white"/>
<path d="M5.35313 0.737793L5.62697 1.36202L6.27621 1.44296L5.79621 1.90969L5.92362 2.58395L5.35313 2.24818L4.78264 2.58395L4.91005 1.90969L4.43005 1.44296L5.07929 1.36202L5.35313 0.737793Z" fill="white"/>
<path d="M8.67649 0.737793L8.95033 1.36202L9.59957 1.44296L9.11957 1.90969L9.24699 2.58395L8.67649 2.24818L8.106 2.58395L8.23342 1.90969L7.75342 1.44296L8.40266 1.36202L8.67649 0.737793Z" fill="white"/>
<path d="M12 0.737793L12.2738 1.36202L12.9231 1.44296L12.4431 1.90969L12.5705 2.58395L12 2.24818L11.4295 2.58395L11.5569 1.90969L11.0769 1.44296L11.7261 1.36202L12 0.737793Z" fill="white"/>
<path d="M15.3231 0.737793L15.5969 1.36202L16.2462 1.44296L15.7662 1.90969L15.8936 2.58395L15.3231 2.24818L14.7526 2.58395L14.88 1.90969L14.4 1.44296L15.0493 1.36202L15.3231 0.737793Z" fill="white"/>
<path d="M1.84593 3.87646L2.11977 4.50069L2.76901 4.58163L2.28901 5.04837L2.41642 5.72262L1.84593 5.38685L1.27544 5.72262L1.40285 5.04837L0.922852 4.58163L1.57209 4.50069L1.84593 3.87646Z" fill="white"/>
<path d="M5.16856 3.87671L5.4424 4.50094L6.09164 4.58188L5.61164 5.04861L5.73905 5.72286L5.16856 5.38709L4.59807 5.72286L4.72548 5.04861L4.24548 4.58188L4.89472 4.50094L5.16856 3.87671Z" fill="white"/>
<path d="M8.49205 3.87646L8.76588 4.50069L9.41512 4.58163L8.93512 5.04837L9.06254 5.72262L8.49205 5.38685L7.92155 5.72262L8.04897 5.04837L7.56897 4.58163L8.21821 4.50069L8.49205 3.87646Z" fill="white"/>
<path d="M11.8157 3.87646L12.0895 4.50069L12.7387 4.58163L12.2587 5.04837L12.3861 5.72262L11.8157 5.38685L11.2452 5.72262L11.3726 5.04837L10.8926 4.58163L11.5418 4.50069L11.8157 3.87646Z" fill="white"/>
<path d="M14.7682 3.87671L15.042 4.50094L15.6912 4.58188L15.2112 5.04861L15.3387 5.72286L14.7682 5.38709L14.1977 5.72286L14.3251 5.04861L13.8451 4.58188L14.4943 4.50094L14.7682 3.87671Z" fill="white"/>
<path d="M1.84593 10.1533L2.11977 10.7775L2.76901 10.8585L2.28901 11.3252L2.41642 11.9995L1.84593 11.6637L1.27544 11.9995L1.40285 11.3252L0.922852 10.8585L1.57209 10.7775L1.84593 10.1533Z" fill="white"/>
<path d="M5.16856 10.1533L5.4424 10.7775L6.09164 10.8585L5.61164 11.3252L5.73905 11.9995L5.16856 11.6637L4.59807 11.9995L4.72548 11.3252L4.24548 10.8585L4.89472 10.7775L5.16856 10.1533Z" fill="white"/>
<path d="M8.49205 10.1533L8.76588 10.7775L9.41512 10.8585L8.93512 11.3252L9.06254 11.9995L8.49205 11.6637L7.92155 11.9995L8.04897 11.3252L7.56897 10.8585L8.21821 10.7775L8.49205 10.1533Z" fill="white"/>
<path d="M11.8157 10.1533L12.0895 10.7775L12.7387 10.8585L12.2587 11.3252L12.3861 11.9995L11.8157 11.6637L11.2452 11.9995L11.3726 11.3252L10.8926 10.8585L11.5418 10.7775L11.8157 10.1533Z" fill="white"/>
<path d="M14.7682 10.1533L15.042 10.7775L15.6912 10.8585L15.2112 11.3252L15.3387 11.9995L14.7682 11.6637L14.1977 11.9995L14.3251 11.3252L13.8451 10.8585L14.4943 10.7775L14.7682 10.1533Z" fill="white"/>
<path d="M2.03062 7.01465L2.30446 7.63888L2.9537 7.71982L2.4737 8.18655L2.60111 8.8608L2.03062 8.52503L1.46013 8.8608L1.58754 8.18655L1.10754 7.71982L1.75678 7.63888L2.03062 7.01465Z" fill="white"/>
<path d="M5.35313 7.01465L5.62697 7.63888L6.27621 7.71982L5.79621 8.18655L5.92362 8.8608L5.35313 8.52503L4.78264 8.8608L4.91005 8.18655L4.43005 7.71982L5.07929 7.63888L5.35313 7.01465Z" fill="white"/>
<path d="M8.67649 7.01465L8.95033 7.63888L9.59957 7.71982L9.11957 8.18655L9.24699 8.8608L8.67649 8.52503L8.106 8.8608L8.23342 8.18655L7.75342 7.71982L8.40266 7.63888L8.67649 7.01465Z" fill="white"/>
<path d="M12 7.01465L12.2738 7.63888L12.9231 7.71982L12.4431 8.18655L12.5705 8.8608L12 8.52503L11.4295 8.8608L11.5569 8.18655L11.0769 7.71982L11.7261 7.63888L12 7.01465Z" fill="white"/>
<path d="M14.9538 7.01465L15.2277 7.63888L15.8769 7.71982L15.3969 8.18655L15.5243 8.8608L14.9538 8.52503L14.3833 8.8608L14.5108 8.18655L14.0308 7.71982L14.68 7.63888L14.9538 7.01465Z" fill="white"/>
</g>
<defs>
<clipPath id="clip0_241_6679">
<rect width="40.6154" height="24" fill="white"/>
</clipPath>
</defs>
</svg>
